<svg width="430" height="545" viewBox="0 0 430 545" fill="none" xmlns="http://www.w3.org/2000/svg">
<path fill-rule="evenodd" clip-rule="evenodd" d="M0 30C0 13.4314 13.4315 0 30 0H360C376.569 0 390 13.4315 390 30V340.007C379.779 340.271 371.582 348.002 371.582 357.5C371.582 366.998 379.779 374.729 390 374.993V475C390 491.569 376.569 505 360 505H30C13.4315 505 0 491.569 0 475V374.823C9.18683 373.609 16.2487 366.316 16.2487 357.5C16.2487 348.684 9.18683 341.391 0 340.177V30Z" fill="white" fill-opacity="0.05"/>
<path fill-rule="evenodd" clip-rule="evenodd" d="M20 50C20 33.4314 33.4315 20 50 20H380C396.569 20 410 33.4315 410 50V360.007C399.779 360.271 391.582 368.002 391.582 377.5C391.582 386.998 399.779 394.729 410 394.993V495C410 511.569 396.569 525 380 525H50C33.4315 525 20 511.569 20 495V394.823C29.1868 393.609 36.2487 386.316 36.2487 377.5C36.2487 368.684 29.1868 361.391 20 360.177V50Z" fill="white" fill-opacity="0.05"/>
<path fill-rule="evenodd" clip-rule="evenodd" d="M40 70C40 53.4314 53.4315 40 70 40H400C416.569 40 430 53.4315 430 70V380.007C419.779 380.271 411.582 388.002 411.582 397.5C411.582 406.998 419.779 414.729 430 414.993V515C430 531.569 416.569 545 400 545H70C53.4315 545 40 531.569 40 515V414.823C49.1868 413.609 56.2487 406.316 56.2487 397.5C56.2487 388.684 49.1868 381.391 40 380.177V70Z" fill="white" fill-opacity="0.05"/>
</svg>
